<?xml version="1.0" standalone="no"?>
<!DOCTYPE svg PUBLIC "-//W3C//DTD SVG 20010904//EN"
 "http://www.w3.org/TR/2001/REC-SVG-20010904/DTD/svg10.dtd">
<svg version="1.0" xmlns="http://www.w3.org/2000/svg"
 width="763.000000pt" height="763.000000pt" viewBox="0 0 763.000000 763.000000"
 preserveAspectRatio="xMidYMid meet">
<metadata>
Created by potrace 1.11, written by Peter Selinger 2001-2013
</metadata>
<g transform="translate(0.000000,763.000000) scale(0.100000,-0.100000)"
fill="#000000" stroke="none">
<path d="M2510 6819 c-272 -24 -544 -142 -785 -339 -96 -79 -268 -258 -340
-355 -207 -277 -336 -600 -392 -980 -24 -168 -24 -557 0 -748 120 -922 601
-1902 1271 -2584 l159 -163 -436 0 c-276 0 -455 -4 -487 -11 -82 -18 -139 -63
-180 -143 -33 -65 -35 -75 -34 -160 1 -102 16 -153 64 -220 72 -100 133 -111
640 -110 390 1 664 12 979 40 151 13 270 29 277 37 1 1 14 49 29 107 37 145
44 293 17 376 -10 34 -36 86 -56 117 -48 72 -164 181 -247 231 -278 169 -585
440 -797 704 -467 583 -724 1348 -699 2082 29 836 385 1483 924 1680 531 193
1183 -73 1856 -758 59 -60 107 -106 107 -101 0 4 -29 64 -64 133 -67 131 -148
261 -224 359 -24 32 -40 62 -36 67 16 15 205 81 328 114 384 106 691 96 953
-30 284 -136 511 -453 604 -843 84 -352 59 -848 -67 -1331 -226 -865 -702
-1660 -1214 -2028 -213 -153 -272 -209 -335 -316 -67 -115 -67 -277 0 -513 15
-51 15 -52 68 -62 224 -44 1150 -83 1493 -63 109 6 216 17 237 24 55 17 109
68 142 134 28 55 30 67 30 169 0 96 -3 116 -24 155 -32 61 -67 97 -126 128
l-50 27 -462 3 c-255 2 -463 4 -463 5 0 1 62 65 138 142 617 630 1011 1481
1129 2435 24 200 24 641 0 823 -66 489 -223 864 -475 1129 -254 267 -554 390
-952 391 -288 0 -608 -73 -930 -212 -51 -23 -97 -41 -101 -41 -5 0 -52 29
-106 64 -320 207 -639 350 -906 406 -84 18 -304 42 -347 38 -8 0 -58 -5 -110
-9z"/>
<path d="M3241 4599 c-65 -13 -123 -51 -151 -101 -24 -42 -25 -49 -30 -298
l-5 -255 -327 -3 -328 -2 0 -275 0 -275 330 0 330 0 0 -330 0 -330 202 0 c197
0 202 1 244 25 53 31 89 90 103 169 6 33 11 151 11 263 l0 203 325 0 325 0 0
275 0 275 -325 0 -325 0 0 329 0 328 -77 7 c-100 8 -247 6 -302 -5z"/>
</g>
</svg>
